<svg xmlns="http://www.w3.org/2000/svg" viewBox="0 0 512 512" width="512" height="512" preserveAspectRatio="none"> <path fill="rgba(250,145,183,0.502)" d="M502.2,316l-11.3-0.2c-1,0-1.8-0.9-1.8-1.9s0.9-1.8,1.9-1.8l11.3,0.2c1,0,1.8,0.9,1.8,1.9 C504,315.3,503.2,316.1,502.2,316z M487.3,285.7c-0.8,0.9-2.2,0.9-3,0.1c-0.9-0.8-0.9-2.2-0.1-3l9.2-9.6c0.8-0.9,2.2-0.9,3-0.1 c0.9,0.8,0.9,2.2,0.1,3L487.3,285.7z M483.9,119.7l-17.2-10.2c-1.5-0.9-2.1-2.9-1.1-4.4c0.9-1.5,2.9-2.1,4.4-1.1l17.2,10.2 c1.5,0.9,2.1,2.9,1.1,4.4C487.5,120.1,485.5,120.6,483.9,119.7z M479.7,26.8c-0.9,0.6-2,0.3-2.6-0.6l-6.3-9.7 c-0.6-0.9-0.3-2,0.6-2.6s2-0.3,2.6,0.6l6.3,9.7C480.8,25,480.5,26.2,479.7,26.8z M465.1,59.1l-13.2-7.4c-1.2-0.7-1.6-2.1-0.9-3.3 s2.1-1.6,3.3-0.9l13.2,7.4c1.2,0.7,1.6,2.1,0.9,3.3C467.7,59.4,466.2,59.8,465.1,59.1z M468.2,237.5c0.1,1.4-1,2.6-2.4,2.7 l-15.7,0.7c-1.4,0.1-2.6-1-2.7-2.4s1-2.6,2.4-2.7l15.7-0.7C467,235,468.2,236.1,468.2,237.5z M443.2,419.8l-9.1-10.8 c-0.8-1-0.7-2.4,0.3-3.2c1-0.8,2.4-0.7,3.2,0.3l9.1,10.8c0.8,1,0.7,2.4-0.3,3.2C445.4,420.9,444,420.7,443.2,419.8z M432.9,281.9 c-0.7,0.5-1.6,0.4-2.2-0.2c-0.5-0.7-0.4-1.6,0.2-2.2l7.4-5.9c0.7-0.5,1.6-0.4,2.2,0.2c0.5,0.7,0.4,1.6-0.2,2.2L432.9,281.9z M436.4,97.4c-0.7-0.1-1.2-0.8-1.1-1.5l1.2-8.2c0.1-0.7,0.8-1.2,1.5-1.1s1.2,0.8,1.1,1.5l-1.2,8.2C437.8,97,437.2,97.5,436.4,97.4z M436.5,150.5c-1.4,0.8-3.1,0.4-3.9-1l-9-15.2c-0.8-1.4-0.4-3.1,1-3.9c1.4-0.8,3.1-0.4,3.9,1l9,15.2 C438.3,147.9,437.8,149.6,436.5,150.5z M430.7,371.6c0.4,1,0,2.1-1,2.5l-10.9,4.6c-1,0.4-2.1,0-2.5-1s0-2.1,1-2.5l10.9-4.6 C429.2,370.2,430.3,370.7,430.7,371.6z M413.2,322l-11.3-0.2c-1,0-1.8-0.9-1.8-1.9s0.9-1.8,1.9-1.8l11.3,0.2c1,0,1.8,0.9,1.8,1.9 C415,321.3,414.2,322.1,413.2,322z M406.8,235.1c-1.1-0.1-1.8-1-1.8-2l0.8-11.8c0.1-1.1,1-1.8,2-1.8c1.1,0.1,1.8,1,1.8,2l-0.8,11.8 C408.7,234.4,407.8,235.2,406.8,235.1z M406.3,192.1c-1.6,0.6-3.4-0.3-4-1.9l-6.5-18.1c-0.6-1.6,0.3-3.4,1.9-4s3.4,0.3,4,1.9 l6.5,18.1C408.7,189.7,407.9,191.5,406.3,192.1z M404,25.5c-0.7,0-1.4-0.5-1.4-1.3l-0.4-8.3c0-0.7,0.5-1.4,1.3-1.4 c0.7,0,1.4,0.5,1.4,1.3l0.4,8.3C405.3,24.8,404.7,25.5,404,25.5z M390.8,427.6l-10.2-5.9c-0.9-0.5-1.2-1.7-0.7-2.6s1.7-1.2,2.6-0.7 l10.2,5.9c0.9,0.5,1.2,1.7,0.7,2.6C392.8,427.9,391.7,428.2,390.8,427.6z M387.9,249.2l-11-5.4c-1-0.5-1.4-1.7-0.9-2.6 c0.5-1,1.7-1.4,2.6-0.9l11,5.4c1,0.5,1.4,1.7,0.9,2.6C390,249.3,388.9,249.7,387.9,249.2z M379,69.7c-1.1,0.6-2.6,0.2-3.2-0.9 L368.7,56c-0.6-1.1-0.2-2.6,0.9-3.2c1.1-0.6,2.6-0.2,3.2,0.9l7.1,12.8C380.6,67.7,380.1,69.1,379,69.7z M375.5,129.4 c0,1.5-1.2,2.7-2.7,2.7l-16.6-0.2c-1.5,0-2.7-1.2-2.7-2.7s1.2-2.7,2.7-2.7l16.6,0.2C374.4,126.7,375.5,127.9,375.5,129.4z M350.6,32.8c-1.5,0.7-3.4,0-4.1-1.5L338.6,14c-0.7-1.5,0-3.4,1.5-4.1c1.5-0.7,3.4,0,4.1,1.5l7.9,17.3 C352.8,30.3,352.2,32.1,350.6,32.8z M341,194.9c-0.2,0.7-0.9,1-1.6,0.8l-7.4-2.5c-0.7-0.2-1-0.9-0.8-1.6c0.2-0.7,0.9-1,1.6-0.8 l7.4,2.5C340.9,193.5,341.2,194.2,341,194.9z M348.3,222.6c0.3,1.5-0.7,2.9-2.1,3.2l-16.3,3.2c-1.5,0.3-2.9-0.7-3.2-2.1 c-0.3-1.5,0.7-2.9,2.1-3.2l16.3-3.2C346.6,220.2,348,221.1,348.3,222.6z M339.2,259.9c1.1-0.9,2.7-0.8,3.6,0.3 c0.9,1.1,0.8,2.7-0.3,3.6l-12,10.2c-1.1,0.9-2.7,0.8-3.6-0.3c-0.9-1.1-0.8-2.7,0.3-3.6L339.2,259.9z M321.6,397.8l-10.2,4.2 c-0.9,0.4-2-0.1-2.3-1c-0.4-0.9,0.1-2,1-2.3l10.2-4.2c0.9-0.4,2,0.1,2.3,1C323,396.4,322.5,397.4,321.6,397.8z M319.3,52.3l-7.8-1 c-0.7-0.1-1.2-0.7-1.1-1.4s0.7-1.2,1.4-1.1l7.8,1c0.7,0.1,1.2,0.7,1.1,1.4C320.7,51.9,320,52.4,319.3,52.3z M313.6,140.8 c-1.5,0.7-3.4,0-4.1-1.5l-7.9-17.3c-0.7-1.5,0-3.4,1.5-4.1s3.4,0,4.1,1.5l7.9,17.3C315.8,138.3,315.2,140.1,313.6,140.8z M301,85.4 l-16.2,13c-1.4,1.2-3.6,0.9-4.7-0.5c-1.2-1.4-0.9-3.6,0.5-4.7l16.2-13c1.4-1.2,3.6-0.9,4.7,0.5C302.7,82.1,302.5,84.2,301,85.4z M280.7,24.8c-0.9,0.6-2,0.3-2.6-0.6l-6.3-9.7c-0.6-0.9-0.3-2,0.6-2.6s2-0.3,2.6,0.6l6.3,9.7C281.8,23,281.5,24.2,280.7,24.8z M273.6,245.9c-0.9,0.4-2,0-2.4-0.9l-4.6-10.2c-0.4-0.9,0-2,0.9-2.4s2,0,2.4,0.9l4.6,10.2C274.9,244.4,274.5,245.5,273.6,245.9z M268.5,450.4c0,1.5-1.2,2.7-2.7,2.7l-16.6-0.2c-1.5,0-2.7-1.2-2.7-2.7s1.2-2.7,2.7-2.7l16.6,0.2 C267.4,447.7,268.5,448.9,268.5,450.4z M251.5,398.3c-1.1,1.3-3,1.5-4.3,0.4s-1.5-3-0.4-4.3l12.3-14.5c1.1-1.3,3-1.5,4.3-0.4 s1.5,3,0.4,4.3L251.5,398.3z M253,115.4l-6.9-4.7c-0.6-0.4-0.8-1.3-0.4-1.9c0.4-0.6,1.3-0.8,1.9-0.4l6.9,4.7 c0.6,0.4,0.8,1.3,0.4,1.9C254.4,115.7,253.6,115.9,253,115.4z M249.8,193.2c-0.1,0.7-0.7,1.2-1.4,1.1l-7.8-1 c-0.7-0.1-1.2-0.7-1.1-1.4c0.1-0.7,0.7-1.2,1.4-1.1l7.8,1C249.4,191.9,249.8,192.5,249.8,193.2z M236.5,45.7l-15-1.4 c-1.3-0.1-2.3-1.3-2.2-2.7c0.1-1.3,1.3-2.3,2.7-2.2l15,1.4c1.3,0.1,2.3,1.3,2.2,2.7C239,44.8,237.8,45.8,236.5,45.7z M219.9,206.4 l6.3,9.7c0.6,0.9,0.3,2-0.6,2.6c-0.9,0.6-2,0.3-2.6-0.6l-6.3-9.7c-0.6-0.9-0.3-2,0.6-2.6C218.1,205.3,219.3,205.5,219.9,206.4z M219.8,259.5c0.5,0.5,0.5,1.3,0,1.8l-5.5,5.7c-0.5,0.5-1.3,0.5-1.8,0s-0.5-1.3,0-1.8l5.5-5.7C218.5,259,219.3,259,219.8,259.5z M209.8,114.6c-1.1,0-1.9-0.9-1.8-2l0.5-11.9c0-1.1,0.9-1.9,2-1.8c1.1,0,1.9,0.9,1.8,2l-0.5,11.9 C211.8,113.8,210.9,114.6,209.8,114.6z M194.9,309.5c-1.6,1.2-3.9,0.9-5.2-0.8l-13.6-18.3c-1.2-1.6-0.9-3.9,0.8-5.2 c1.6-1.2,3.9-0.9,5.2,0.8l13.6,18.3C196.8,306,196.5,308.3,194.9,309.5z M194.7,171.1c-0.7,0.3-1.5-0.1-1.7-0.8l-2.9-7.7 c-0.3-0.7,0.1-1.5,0.8-1.7c0.7-0.3,1.5,0.1,1.7,0.8l2.9,7.7C195.7,170.1,195.4,170.9,194.7,171.1z M172.3,25.1l-10-9.9 c-0.9-0.9-0.9-2.3,0-3.2s2.3-0.9,3.2,0l10,9.9c0.9,0.9,0.9,2.3,0,3.2C174.6,25.9,173.2,26,172.3,25.1z M175.6,62.4 c0.3,1.6-0.7,3.2-2.4,3.6l-18.3,3.7c-1.6,0.3-3.2-0.7-3.6-2.4c-0.3-1.6,0.7-3.2,2.4-3.6L172,60C173.7,59.7,175.3,60.7,175.6,62.4z M165.6,131.4c0.3,1.6-0.7,3.2-2.4,3.6l-18.3,3.7c-1.6,0.3-3.2-0.7-3.6-2.4c-0.3-1.6,0.7-3.2,2.4-3.6L162,129 C163.7,128.7,165.3,129.7,165.6,131.4z M149.3,187c0.8,1.1,0.6,2.7-0.5,3.6l-12.6,9.5c-1.1,0.8-2.7,0.6-3.6-0.5 c-0.8-1.1-0.6-2.7,0.5-3.6l12.6-9.5C146.8,185.7,148.4,185.9,149.3,187z M133.4,328.3l-7.2,8.5c-0.6,0.8-1.8,0.9-2.5,0.2 c-0.8-0.6-0.9-1.8-0.2-2.5l7.2-8.5c0.6-0.8,1.8-0.9,2.5-0.2C133.9,326.4,134,327.5,133.4,328.3z M128.1,249l-10.8,4.7 c-1,0.4-2.1,0-2.5-1s0-2.1,1-2.5l10.8-4.7c1-0.4,2.1,0,2.5,1C129.5,247.4,129.1,248.5,128.1,249z M114.9,118.6 c-0.8,1.5-2.6,2.1-4.1,1.3c-1.5-0.8-2.1-2.6-1.3-4.1l8.7-16.9c0.8-1.5,2.6-2.1,4.1-1.3c1.5,0.8,2.1,2.6,1.3,4.1L114.9,118.6z M114.2,38.9l-18.3,3.7c-1.6,0.3-3.2-0.7-3.6-2.4C92,38.6,93,37,94.7,36.7L113,33c1.6-0.3,3.2,0.7,3.6,2.4 C116.9,37,115.9,38.6,114.2,38.9z M98.3,197.6c1.3,0.3,2.1,1.6,1.7,2.9l-3.4,14.2c-0.3,1.3-1.6,2.1-2.9,1.7 c-1.3-0.3-2.1-1.6-1.7-2.9l3.4-14.2C95.7,198,97,197.2,98.3,197.6z M77.8,457.9c-0.5,0.9-1.6,1.2-2.5,0.7s-1.2-1.6-0.7-2.5l5.4-9.8 c0.5-0.9,1.6-1.2,2.5-0.7s1.2,1.6,0.7,2.5L77.8,457.9z M77.3,394.2c-1.2,0.9-2.9,0.6-3.7-0.6l-9.7-13.4c-0.9-1.2-0.6-2.9,0.6-3.7 c1.2-0.9,2.9-0.6,3.7,0.6l9.7,13.4C78.8,391.6,78.5,393.3,77.3,394.2z M74.7,183.8c-0.2,0.7-1,1.1-1.7,0.8c-0.7-0.2-1.1-1-0.8-1.7 l2.8-7.8c0.2-0.7,1-1.1,1.7-0.8c0.7,0.2,1.1,1,0.8,1.7L74.7,183.8z M73,270.5c0.7,0.1,1.2,0.8,1.1,1.5l-1.2,8.2 c-0.1,0.7-0.8,1.2-1.5,1.1s-1.2-0.8-1.1-1.5l1.2-8.2C71.6,270.9,72.3,270.4,73,270.5z M68.7,125.1c-1.2-0.1-2.2-1.2-2.1-2.4 l1.1-13.9c0.1-1.2,1.2-2.2,2.4-2.1c1.2,0.1,2.2,1.2,2.1,2.4L71.1,123C71,124.2,69.9,125.2,68.7,125.1z M45.9,335.3 c-1.6,0.3-3.1-0.8-3.4-2.4l-3.2-17.8c-0.3-1.6,0.8-3.1,2.4-3.4c1.6-0.3,3.1,0.8,3.4,2.4l3.2,17.8C48.6,333.5,47.5,335,45.9,335.3z M40.2,40.1l-10.3-5.7c-0.9-0.5-1.3-1.7-0.7-2.6c0.5-0.9,1.7-1.3,2.6-0.7L42,36.7c0.9,0.5,1.3,1.7,0.7,2.6 C42.3,40.3,41.1,40.6,40.2,40.1z M43.3,80c-0.4,1.3-1.8,2-3.1,1.5L26,76.8c-1.3-0.4-2-1.8-1.5-3c0.4-1.3,1.8-2,3-1.5L41.8,77 C43.1,77.4,43.7,78.8,43.3,80z M28,136.5l4.8,13.2c0.4,1.2-0.2,2.5-1.4,2.9c-1.2,0.4-2.5-0.2-2.9-1.4L23.8,138 c-0.4-1.2,0.2-2.5,1.4-2.9C26.3,134.7,27.6,135.3,28,136.5z M38.3,448.8c-0.4,1.4-1.8,2.3-3.2,1.9l-15.8-4.1 c-1.4-0.4-2.3-1.8-1.9-3.2c0.4-1.4,1.8-2.3,3.2-1.9l15.8,4.1C37.8,446,38.7,447.4,38.3,448.8z M9.8,299.6c-1.1,0-1.9-0.9-1.8-2 l0.5-11.9c0-1.1,0.9-1.9,2-1.8c1.1,0,1.9,0.9,1.8,2l-0.5,11.9C11.8,298.8,10.9,299.6,9.8,299.6z M30.1,490.1l8.8,7.8 c0.8,0.7,0.9,1.9,0.2,2.7c-0.7,0.8-1.9,0.9-2.7,0.2l-8.8-7.8c-0.8-0.7-0.9-1.9-0.2-2.7S29.3,489.4,30.1,490.1z M39.2,385.2l-9.1,6.2 c-0.8,0.6-1.9,0.3-2.5-0.5s-0.3-1.9,0.5-2.5l9.1-6.2c0.8-0.6,1.9-0.3,2.5,0.5S40.1,384.6,39.2,385.2z M31.2,200.3l-5.9-5.9 c-0.5-0.5-0.5-1.4,0-1.9s1.4-0.5,1.9,0l5.9,5.9c0.5,0.5,0.5,1.4,0,1.9C32.6,200.8,31.7,200.8,31.2,200.3z M43.6,237.2 c0.5,1.1,0,2.4-1.2,2.9l-12.7,5.5c-1.1,0.5-2.4,0-2.9-1.2c-0.5-1.1,0-2.4,1.2-2.9l12.7-5.5C41.8,235.5,43.1,236.1,43.6,237.2z M98,338.6l6.8,8.9c0.6,0.8,0.4,1.9-0.3,2.5c-0.8,0.6-1.9,0.4-2.5-0.3l-6.8-8.9c-0.6-0.8-0.4-1.9,0.3-2.5 C96.3,337.7,97.4,337.8,98,338.6z M100.6,289.8c1.1-0.9,2.8-0.8,3.8,0.4l10.5,12.8c0.9,1.1,0.8,2.8-0.4,3.8s-2.8,0.8-3.8-0.4 l-10.5-12.8C99.3,292.4,99.4,290.8,100.6,289.8z M114.7,463.7L133,460c1.6-0.3,3.2,0.7,3.6,2.4c0.3,1.6-0.7,3.2-2.4,3.6l-18.3,3.7 c-1.6,0.3-3.2-0.7-3.6-2.4C112,465.6,113,464,114.7,463.7z M148.2,311.3l-5.9-5.9c-0.5-0.5-0.5-1.4,0-1.9s1.4-0.5,1.9,0l5.9,5.9 c0.5,0.5,0.5,1.4,0,1.9C149.6,311.8,148.7,311.8,148.2,311.3z M144.9,409.1l14.3,6.4c1.3,0.6,1.9,2.1,1.3,3.4 c-0.6,1.3-2.1,1.9-3.4,1.3l-14.3-6.4c-1.3-0.6-1.9-2.1-1.3-3.4C142.1,409.1,143.6,408.5,144.9,409.1z M166.8,224.4l-10.5-12.8 c-0.9-1.1-0.8-2.8,0.4-3.8c1.1-0.9,2.8-0.8,3.8,0.4L171,221c0.9,1.1,0.8,2.8-0.4,3.8S167.7,225.5,166.8,224.4z M155.6,360 c-0.8-1.1-0.5-2.7,0.6-3.5l12.6-9c1.1-0.8,2.7-0.5,3.5,0.6s0.5,2.7-0.6,3.5l-12.6,9C158,361.4,156.4,361.1,155.6,360z M189.4,448.7 l-8.8-7.8c-0.8-0.7-0.9-1.9-0.2-2.7c0.7-0.8,1.9-0.9,2.7-0.2l8.8,7.8c0.8,0.7,0.9,1.9,0.2,2.7C191.4,449.4,190.2,449.4,189.4,448.7z M181.8,481.2l11.1,0.7c1,0.1,1.7,0.9,1.7,1.9s-0.9,1.8-1.9,1.7l-11.1-0.7c-1-0.1-1.8-0.9-1.7-1.9 C179.9,481.9,180.8,481.1,181.8,481.2z M213.1,396.1l8.8,7.8c0.8,0.7,0.9,1.9,0.2,2.7c-0.7,0.8-1.9,0.9-2.7,0.2l-8.8-7.8 c-0.8-0.7-0.9-1.9-0.2-2.7S212.3,395.4,213.1,396.1z M224.4,484.6c1.2,0,2.1,1,2.1,2.2l-0.2,13.4c0,1.2-1,2.1-2.2,2.1 s-2.1-1-2.1-2.2l0.2-13.4C222.2,485.5,223.2,484.5,224.4,484.6z M235.5,149.3l-11.5,1.9c-1,0.2-2-0.5-2.2-1.6c-0.2-1,0.5-2,1.6-2.2 l11.5-1.9c1-0.2,2,0.5,2.2,1.6C237.2,148.1,236.5,149.1,235.5,149.3z M238.7,298l10.3,5.7c0.9,0.5,1.3,1.7,0.7,2.6 c-0.5,0.9-1.7,1.3-2.6,0.7l-10.3-5.7c-0.9-0.5-1.3-1.7-0.7-2.6C236.6,297.9,237.8,297.5,238.7,298z M218.3,348.2 c-0.7-1.9,0.2-4,2.1-4.7l21.1-8.1c1.9-0.7,4,0.2,4.7,2.1s-0.2,4-2.1,4.7l-21.1,8.1C221.1,351,219,350.1,218.3,348.2z M269.9,308.9 c1-0.4,2.1,0.1,2.4,1.1l4.2,10.8c0.4,1-0.1,2.1-1.1,2.4c-1,0.4-2.1-0.1-2.4-1.1l-4.2-10.8C268.4,310.3,268.9,309.3,269.9,308.9z M298.9,434.8l3.4,15.4c0.3,1.4-0.6,2.7-1.9,3c-1.4,0.3-2.7-0.6-3-1.9l-3.4-15.4c-0.3-1.4,0.6-2.7,1.9-3 C297.2,432.5,298.6,433.4,298.9,434.8z M287.9,197.9c1-0.4,2.1,0.1,2.4,1.1l4.2,10.8c0.4,1-0.1,2.1-1.1,2.4c-1,0.4-2.1-0.1-2.4-1.1 l-4.2-10.8C286.4,199.3,286.9,198.3,287.9,197.9z M273.6,162.2l-0.4-8.3c0-0.7,0.5-1.4,1.3-1.4c0.7,0,1.4,0.5,1.4,1.3l0.4,8.3 c0,0.7-0.5,1.4-1.3,1.4C274.3,163.5,273.6,163,273.6,162.2z M289.7,277.6c-1.2,1.3-3.2,1.5-4.6,0.3l-15-13.2 c-1.3-1.2-1.5-3.2-0.3-4.6c1.2-1.3,3.2-1.5,4.6-0.3l15,13.2C290.7,274.2,290.9,276.2,289.7,277.6z M301.7,336.9 c-0.6-0.8-0.3-1.9,0.5-2.5l9.1-6.2c0.8-0.6,1.9-0.3,2.5,0.5s0.3,1.9-0.5,2.5l-9.1,6.2C303.3,337.9,302.2,337.7,301.7,336.9z M303.4,387.9c-0.6,1.3-2.2,1.9-3.6,1.3c-1.3-0.6-1.9-2.2-1.3-3.6l7.1-15c0.6-1.3,2.2-1.9,3.6-1.3c1.3,0.6,1.9,2.2,1.3,3.6 L303.4,387.9z M281.7,490.7L300,487c1.6-0.3,3.2,0.7,3.6,2.4c0.3,1.6-0.7,3.2-2.4,3.6l-18.3,3.7c-1.6,0.3-3.2-0.7-3.6-2.4 C279,492.6,280,491,281.7,490.7z M346.6,453.1c0.4-0.6,1.2-0.8,1.8-0.4c0.6,0.4,0.8,1.2,0.4,1.8l-4.3,6.6c-0.4,0.6-1.2,0.8-1.8,0.4 c-0.6-0.4-0.8-1.2-0.4-1.8L346.6,453.1z M348.8,171.9c0.4-0.6,1.3-0.8,1.9-0.4l6.9,4.7c0.6,0.4,0.8,1.3,0.4,1.9 c-0.4,0.6-1.3,0.8-1.9,0.4l-6.9-4.7C348.5,173.3,348.3,172.5,348.8,171.9z M356.7,293.9l18.5,0.7c1.7,0.1,3,1.4,2.9,3.1 s-1.4,3-3.1,2.9l-18.5-0.7c-1.7-0.1-3-1.4-2.9-3.1C353.7,295.1,355.1,293.9,356.7,293.9z M356.1,381.3l7.8-0.5 c0.7,0,1.3,0.5,1.3,1.2s-0.5,1.3-1.2,1.3l-7.8,0.5c-0.7,0-1.3-0.5-1.3-1.2C354.9,381.9,355.4,381.3,356.1,381.3z M364.3,487.9 c0.9-0.6,2-0.3,2.6,0.6l6.3,9.7c0.6,0.9,0.3,2-0.6,2.6s-2,0.3-2.6-0.6l-6.3-9.7C363.2,489.6,363.4,488.4,364.3,487.9z M378.5,334.7 c1,0.1,1.8,1,1.7,2.1l-1,11.7c-0.1,1-1,1.8-2.1,1.7c-1-0.1-1.8-1-1.7-2.1l1-11.7C376.5,335.4,377.4,334.6,378.5,334.7z M389,456.4 c1.4,0,2.6,1.1,2.6,2.5l0.1,15.7c0,1.4-1.1,2.6-2.5,2.6s-2.6-1.1-2.6-2.5l-0.1-15.7C386.4,457.6,387.5,456.5,389,456.4z M427.9,454.9c0.5-0.7,1.6-0.9,2.3-0.4c0.7,0.5,0.9,1.6,0.4,2.3l-6,8.3c-0.5,0.7-1.6,0.9-2.3,0.4c-0.7-0.5-0.9-1.6-0.4-2.3 L427.9,454.9z M466.1,327.6c1.2,0.1,2.2,1.2,2.1,2.4l-1.1,13.9c-0.1,1.2-1.2,2.2-2.4,2.1c-1.2-0.1-2.2-1.2-2.1-2.4l1.1-13.9 C463.7,328.5,464.8,327.5,466.1,327.6z M464.6,165c-0.9-0.5-1.2-1.6-0.8-2.4l5.2-9.9c0.5-0.9,1.6-1.2,2.4-0.8 c0.9,0.5,1.2,1.6,0.8,2.4l-5.2,9.9C466.6,165.2,465.5,165.5,464.6,165z M472.5,203.8c0-1,0.9-1.8,1.9-1.7l11.2,0.5 c1,0,1.8,0.9,1.7,1.9c0,1-0.9,1.8-1.9,1.7l-11.2-0.5C473.2,205.7,472.5,204.8,472.5,203.8z M466.8,394.7l16.3-3.2 c1.5-0.3,2.9,0.7,3.2,2.1c0.3,1.5-0.7,2.9-2.1,3.2l-16.3,3.2c-1.5,0.3-2.9-0.7-3.2-2.1C464.4,396.4,465.4,395,466.8,394.7z M470.2,456.7l11.6-6.7c1-0.6,2.4-0.2,3,0.8s0.2,2.4-0.8,3l-11.6,6.7c-1,0.6-2.4,0.2-3-0.8S469.2,457.3,470.2,456.7z M475.8,492.1 l10.8-4.7c1-0.4,2.1,0,2.5,1s0,2.1-1,2.5l-10.8,4.7c-1,0.4-2.1,0-2.5-1C474.4,493.7,474.8,492.6,475.8,492.1z M60.9,6.8 c1-0.9,2.5-0.8,3.4,0.3L74,18.4c0.9,1,0.8,2.5-0.3,3.4c-1,0.9-2.5,0.8-3.4-0.3l-9.8-11.3C59.7,9.2,59.9,7.7,60.9,6.8z" /></svg>